<svg xmlns="http://www.w3.org/2000/svg" viewBox="0 0 80 80" role="img" aria-label="Snapuppy">
  <rect width="80" height="80" fill="#8FB886"/>
  <g transform="translate(10,10) scale(0.75)">
    <path d="M18 14 L10 38 L28 34 Z" fill="#D4845A"/>
    <path d="M20 18 L14 32 L26 29 Z" fill="#F3BA9D"/>
    <path d="M62 14 L70 38 L52 34 Z" fill="#D4845A"/>
    <path d="M60 18 L66 32 L54 29 Z" fill="#F3BA9D"/>
    <circle cx="40" cy="40" r="22" fill="#FDFBF7"/>
    <circle cx="28" cy="46" r="2.5" fill="#F6D7C5"/>
    <circle cx="52" cy="46" r="2.5" fill="#F6D7C5"/>
    <ellipse cx="40" cy="50" rx="14" ry="10" fill="#F5F0EB"/>
    <ellipse cx="30" cy="36" r="3" fill="#4A3728"/>
    <ellipse cx="50" cy="36" r="3" fill="#4A3728"/>
    <circle cx="31" cy="35" r="1" fill="#FFFFFF"/>
    <circle cx="51" cy="35" r="1" fill="#FFFFFF"/>
    <ellipse cx="40" cy="46" rx="4.5" ry="3" fill="#4A3728"/>
    <path d="M40 48 V50" stroke="#4A3728" stroke-width="1.5" stroke-linecap="round"/>
    <path d="M34 51 Q40 55 46 51" stroke="#4A3728" stroke-width="1.5" stroke-linecap="round" fill="none"/>
    <path d="M37 52 C36 56 38 60 40 60 C42 60 44 56 43 52 Z" fill="#D4845A"/>
    <path d="M40 53 V59" stroke="#B9654A" stroke-width="1" stroke-linecap="round"/>
  </g>
</svg>
